<svg width="240" height="240" viewBox="0 0 240 240" fill="none" xmlns="http://www.w3.org/2000/svg">
<path fill-rule="evenodd" clip-rule="evenodd" d="M215.193 120.397C215.193 172.312 173.108 214.397 121.193 214.397C69.2786 214.397 27.1934 172.312 27.1934 120.397C27.1934 68.4827 69.2786 26.3975 121.193 26.3975C173.108 26.3975 215.193 68.4827 215.193 120.397ZM81.0711 95.7947C77.1658 91.8895 77.1658 85.5578 81.0711 81.6526L82.4853 80.2384C86.3905 76.3331 92.7222 76.3331 96.6274 80.2384L121.056 104.667L145.652 80.0714C149.557 76.1662 155.889 76.1662 159.794 80.0714L161.209 81.4856C165.114 85.3909 165.114 91.7225 161.209 95.6278L136.613 120.224L161.209 144.819C165.114 148.725 165.114 155.056 161.209 158.962L159.794 160.376C155.889 164.281 149.557 164.281 145.652 160.376L121.056 135.78L96.6274 160.209C92.7222 164.114 86.3905 164.114 82.4853 160.209L81.0711 158.795C77.1658 154.889 77.1658 148.558 81.0711 144.653L105.5 120.224L81.0711 95.7947Z" fill="#D6F866"/>
</svg>
