<svg width="100" height="124" viewBox="0 0 100 124" fill="none" xmlns="http://www.w3.org/2000/svg">
    <path d="m39.491 29.056-27.57 8.39a3.103 3.103 0 0 0-2.067 3.873l11.4 37.391a3.107 3.107 0 0 0 3.876 2.065l27.57-8.39a3.103 3.103 0 0 0 2.067-3.873L43.368 31.12a3.107 3.107 0 0 0-3.877-2.064z" fill="#464646"/>
    <path d="m14.272 32.206 1.45 4.75c.168.545.704.872 1.19.723l18.976-5.77c.496-.15.754-.714.585-1.26l-1.449-4.75c-.168-.545-.704-.872-1.19-.723l-2.988.912c.159.516-8.674-6.772-13.06 3.976l-2.918.883c-.497.149-.755.714-.586 1.259h-.01z" fill="#646464"/>
    <path d="M25.467 33.803a2.073 2.073 0 1 0 .002-4.147 2.073 2.073 0 0 0-.002 4.147z" fill="#2F2F2F"/>
    <path d="M25.874 7.982a2.37 2.37 0 1 0-2.372-2.37 2.37 2.37 0 0 0 2.372 2.37z" fill="#646464"/>
    <path d="M96 44.414a2.708 2.708 0 1 0-2.709-2.707 2.708 2.708 0 0 0 2.71 2.707zM3.79 60.61a1.805 1.805 0 1 0 .002-3.612 1.805 1.805 0 0 0-.001 3.611z" fill="#464646"/>
    <path d="M48.193 87a1.806 1.806 0 1 0 .002-3.611A1.806 1.806 0 0 0 48.193 87z" fill="#646464"/>
    <path d="m80.282 15.949-40.027-2.152a4.326 4.326 0 0 0-4.554 4.085L32.777 72.18a4.325 4.325 0 0 0 4.088 4.55l40.028 2.152a4.326 4.326 0 0 0 4.553-4.085l2.924-54.299a4.325 4.325 0 0 0-4.088-4.55z" fill="#1E1E1E"/>
    <path d="M82.145 11.185H42.06a4.325 4.325 0 0 0-4.328 4.323v54.378a4.325 4.325 0 0 0 4.328 4.323h40.085a4.325 4.325 0 0 0 4.327-4.323V15.508a4.325 4.325 0 0 0-4.327-4.323z" fill="#464646"/>
    <path d="M61.995 58C53.725 58 47 51.265 47 42.995S53.726 28 61.995 28c8.27 0 14.996 6.726 14.996 14.995 0 8.27-6.726 14.996-14.996 14.996V58zm0-29.07c-7.758 0-14.065 6.307-14.065 14.065 0 7.759 6.307 14.066 14.065 14.066 7.759 0 14.066-6.307 14.066-14.066 0-7.758-6.308-14.065-14.066-14.065z" fill="#2F2F2F"/>
    <path d="M47.797 6.95v7.011c0 .803.585 1.458 1.31 1.458h28.027c.724 0 1.31-.655 1.31-1.458v-7.01c0-.803-.586-1.458-1.31-1.458h-4.416c0 .764-8.933-12.721-19.294 0h-4.307c-.725 0-1.31.655-1.31 1.458h-.01z" fill="#646464"/>
    <path d="M63.12 13.862a2.936 2.936 0 0 0 2.937-2.935 2.936 2.936 0 0 0-2.938-2.935 2.936 2.936 0 0 0-2.937 2.935 2.936 2.936 0 0 0 2.937 2.935z" fill="#2F2F2F"/>
    <g clip-path="url(#mseioggg1a)">
        <path d="M61.95 54.9c6.6 0 11.95-5.35 11.95-11.95S68.55 31 61.95 31 50 36.35 50 42.95 55.35 54.9 61.95 54.9z" fill="#2F2F2F"/>
        <path d="m63.39 43.51 3.67-3.5a.996.996 0 1 0-1.38-1.44l-3.74 3.57-3.74-3.57a.996.996 0 1 0-1.38 1.44l3.67 3.5-3.67 3.5a.996.996 0 0 0-.03 1.41c.2.21.46.31.72.31.25 0 .5-.09.69-.28l3.74-3.57 3.74 3.57c.19.18.44.28.69.28.26 0 .53-.1.72-.31.38-.4.37-1.03-.03-1.41l-3.67-3.5z" fill="#646464"/>
    </g>
    <path d="M24.468 104.418v8.64l-5.706-8.64h-2.52V117h2.52v-8.622L24.468 117h2.52v-12.582h-2.52zm14.1 7.596c0-3.15-2.25-5.148-5.13-5.148s-5.13 1.998-5.13 5.148c0 3.132 2.178 5.148 5.058 5.148 2.898 0 5.202-2.016 5.202-5.148zm-7.704 0c0-1.998 1.206-2.952 2.538-2.952 1.332 0 2.574.954 2.574 2.952 0 1.98-1.278 2.952-2.61 2.952-1.35 0-2.502-.972-2.502-2.952zm12.114-.036c0 3.114 2.016 5.184 4.554 5.184 1.566 0 2.682-.72 3.276-1.638V117h2.556v-13.32h-2.556v4.734c-.684-.936-1.944-1.548-3.258-1.548-2.556 0-4.572 1.998-4.572 5.112zm7.848.036c0 1.89-1.26 2.934-2.646 2.934-1.35 0-2.628-1.08-2.628-2.97 0-1.89 1.278-2.898 2.628-2.898 1.386 0 2.646 1.044 2.646 2.934zm3.811-.036c0 3.114 2.016 5.184 4.536 5.184 1.584 0 2.718-.756 3.312-1.62V117h2.538v-9.972h-2.538v1.422c-.594-.828-1.692-1.584-3.294-1.584-2.538 0-4.554 1.998-4.554 5.112zm7.848.036c0 1.89-1.26 2.934-2.646 2.934-1.35 0-2.628-1.08-2.628-2.97 0-1.89 1.278-2.898 2.628-2.898 1.386 0 2.646 1.044 2.646 2.934zm4.855 1.89c0 2.286 1.278 3.096 3.186 3.096h1.584v-2.124h-1.17c-.792 0-1.062-.288-1.062-.954v-4.824h2.232v-2.07h-2.232v-2.466H67.34v2.466h-1.188v2.07h1.188v4.806zm5.395-1.926c0 3.114 2.016 5.184 4.536 5.184 1.584 0 2.718-.756 3.312-1.62V117h2.538v-9.972h-2.538v1.422c-.594-.828-1.692-1.584-3.294-1.584-2.538 0-4.554 1.998-4.554 5.112zm7.848.036c0 1.89-1.26 2.934-2.646 2.934-1.35 0-2.628-1.08-2.628-2.97 0-1.89 1.278-2.898 2.628-2.898 1.386 0 2.646 1.044 2.646 2.934z" fill="#626262"/>
    <defs>
        <clipPath id="mseioggg1a">
            <path fill="#fff" transform="translate(50 31)" d="M0 0h23.89v23.89H0z"/>
        </clipPath>
    </defs>
</svg>
